<mxfile host="65bd71144e">
    <diagram id="Bi8yQc8i4gSCwa7ISA3M" name="Page-1">
        <mxGraphModel dx="7027" dy="3073" grid="1" gridSize="10" guides="1" tooltips="1" connect="1" arrows="0" fold="1" page="1" pageScale="1" pageWidth="850" pageHeight="1100" math="0" shadow="0">
            <root>
                <mxCell id="0"/>
                <mxCell id="1" parent="0"/>
                <mxCell id="251" style="edgeStyle=orthogonalEdgeStyle;rounded=1;orthogonalLoop=1;jettySize=auto;html=1;exitX=0;exitY=0.5;exitDx=0;exitDy=0;entryX=1;entryY=0.5;entryDx=0;entryDy=0;fontSize=14;endArrow=none;endFill=0;strokeWidth=2;" edge="1" parent="1" source="261" target="264">
                    <mxGeometry relative="1" as="geometry">
                        <mxPoint x="311" y="150" as="sourcePoint"/>
                    </mxGeometry>
                </mxCell>
                <mxCell id="252" style="edgeStyle=orthogonalEdgeStyle;rounded=1;orthogonalLoop=1;jettySize=auto;html=1;exitX=0;exitY=0.5;exitDx=0;exitDy=0;entryX=1;entryY=0.5;entryDx=0;entryDy=0;fontSize=14;endArrow=none;endFill=0;strokeWidth=2;" edge="1" parent="1" source="261" target="317">
                    <mxGeometry relative="1" as="geometry">
                        <mxPoint x="311" y="150" as="sourcePoint"/>
                        <mxPoint x="250" y="290" as="targetPoint"/>
                    </mxGeometry>
                </mxCell>
                <mxCell id="253" style="edgeStyle=orthogonalEdgeStyle;rounded=1;orthogonalLoop=1;jettySize=auto;html=1;exitX=0;exitY=0.5;exitDx=0;exitDy=0;entryX=1;entryY=0.5;entryDx=0;entryDy=0;fontSize=14;endArrow=none;endFill=0;strokeWidth=2;" edge="1" parent="1" source="261" target="265">
                    <mxGeometry relative="1" as="geometry">
                        <mxPoint x="311" y="150" as="sourcePoint"/>
                    </mxGeometry>
                </mxCell>
                <mxCell id="254" style="edgeStyle=orthogonalEdgeStyle;rounded=1;orthogonalLoop=1;jettySize=auto;html=1;exitX=0;exitY=0.5;exitDx=0;exitDy=0;entryX=1;entryY=0.5;entryDx=0;entryDy=0;fontSize=14;endArrow=none;endFill=0;strokeWidth=2;" edge="1" parent="1" source="261" target="266">
                    <mxGeometry relative="1" as="geometry">
                        <mxPoint x="311" y="150" as="sourcePoint"/>
                    </mxGeometry>
                </mxCell>
                <mxCell id="255" style="edgeStyle=orthogonalEdgeStyle;rounded=1;orthogonalLoop=1;jettySize=auto;html=1;exitX=1;exitY=0.5;exitDx=0;exitDy=0;entryX=0;entryY=0.5;entryDx=0;entryDy=0;fontSize=14;endArrow=none;endFill=0;strokeWidth=2;" edge="1" parent="1" source="261" target="267">
                    <mxGeometry relative="1" as="geometry"/>
                </mxCell>
                <mxCell id="256" style="edgeStyle=orthogonalEdgeStyle;rounded=1;orthogonalLoop=1;jettySize=auto;html=1;exitX=1;exitY=0.5;exitDx=0;exitDy=0;entryX=0;entryY=0.5;entryDx=0;entryDy=0;fontSize=14;endArrow=none;endFill=0;strokeWidth=2;" edge="1" parent="1" source="261" target="269">
                    <mxGeometry relative="1" as="geometry"/>
                </mxCell>
                <mxCell id="257" style="edgeStyle=orthogonalEdgeStyle;rounded=1;orthogonalLoop=1;jettySize=auto;html=1;exitX=0.5;exitY=1;exitDx=0;exitDy=0;fontSize=14;endArrow=none;endFill=0;strokeWidth=2;" edge="1" parent="1" source="261" target="275">
                    <mxGeometry relative="1" as="geometry"/>
                </mxCell>
                <mxCell id="258" style="edgeStyle=orthogonalEdgeStyle;rounded=1;orthogonalLoop=1;jettySize=auto;html=1;exitX=1;exitY=0.5;exitDx=0;exitDy=0;entryX=0;entryY=0.5;entryDx=0;entryDy=0;endArrow=none;endFill=0;strokeWidth=2;" edge="1" parent="1" source="261" target="268">
                    <mxGeometry relative="1" as="geometry"/>
                </mxCell>
                <mxCell id="259" style="edgeStyle=orthogonalEdgeStyle;rounded=1;orthogonalLoop=1;jettySize=auto;html=1;exitX=1;exitY=0.5;exitDx=0;exitDy=0;entryX=0;entryY=0.5;entryDx=0;entryDy=0;endArrow=none;endFill=0;strokeWidth=2;" edge="1" parent="1" source="261" target="313">
                    <mxGeometry relative="1" as="geometry"/>
                </mxCell>
                <mxCell id="260" style="edgeStyle=orthogonalEdgeStyle;rounded=1;orthogonalLoop=1;jettySize=auto;html=1;exitX=1;exitY=0.5;exitDx=0;exitDy=0;entryX=0;entryY=0.5;entryDx=0;entryDy=0;endArrow=none;endFill=0;strokeWidth=2;" edge="1" parent="1" source="261" target="323">
                    <mxGeometry relative="1" as="geometry"/>
                </mxCell>
                <object label="&lt;font style=&quot;font-size: 14px;&quot;&gt;Learn the Fundamentals&lt;/font&gt;" id="261">
                    <mxCell style="rounded=1;whiteSpace=wrap;html=1;fillColor=#fff2cc;strokeColor=#d6b656;strokeWidth=2;fontSize=14;" vertex="1" parent="1">
                        <mxGeometry x="320" y="260" width="200" height="40" as="geometry"/>
                    </mxCell>
                </object>
                <mxCell id="262" style="edgeStyle=orthogonalEdgeStyle;rounded=1;orthogonalLoop=1;jettySize=auto;html=1;exitX=0.5;exitY=1;exitDx=0;exitDy=0;entryX=0.5;entryY=0;entryDx=0;entryDy=0;fontSize=14;endArrow=none;endFill=0;strokeWidth=2;" edge="1" parent="1" source="263" target="261">
                    <mxGeometry relative="1" as="geometry"/>
                </mxCell>
                <mxCell id="263" value="&lt;div style=&quot;font-size: 32px&quot;&gt;&lt;font style=&quot;font-size: 32px&quot;&gt;&lt;b&gt;&lt;font style=&quot;font-size: 32px&quot;&gt;C#&lt;/font&gt;&lt;/b&gt;&lt;/font&gt;&lt;/div&gt;" style="text;html=1;strokeColor=none;fillColor=none;align=center;verticalAlign=middle;whiteSpace=wrap;rounded=0;fontSize=24;" vertex="1" parent="1">
                    <mxGeometry x="385" y="40" width="70" height="40" as="geometry"/>
                </mxCell>
                <UserObject label="&lt;div style=&quot;font-size: 14px&quot;&gt;&lt;a href=&quot;https://docs.microsoft.com/en-us/dotnet/csharp/tour-of-csharp/tutorials/hello-world&quot;&gt;Basic Syntax&lt;/a&gt;&lt;/div&gt;" link="https://docs.microsoft.com/en-us/dotnet/csharp/tour-of-csharp/tutorials/hello-world" id="264">
                    <mxCell style="rounded=1;whiteSpace=wrap;html=1;fillColor=#dae8fc;strokeColor=#6c8ebf;strokeWidth=2;fontSize=14;" vertex="1" parent="1">
                        <mxGeometry x="140" y="130" width="100" height="40" as="geometry"/>
                    </mxCell>
                </UserObject>
                <UserObject label="&lt;div style=&quot;font-size: 14px&quot;&gt;&lt;a href=&quot;https://docs.microsoft.com/en-us/dotnet/csharp/language-reference/statements/selection-statements&quot;&gt;Conditionals&lt;/a&gt;&lt;/div&gt;" link="https://docs.microsoft.com/en-us/dotnet/csharp/language-reference/statements/selection-statements" linkTarget="_blank" id="265">
                    <mxCell style="rounded=1;whiteSpace=wrap;html=1;fillColor=#dae8fc;strokeColor=#6c8ebf;strokeWidth=2;fontSize=14;" vertex="1" parent="1">
                        <mxGeometry x="140" y="390" width="100" height="40" as="geometry"/>
                    </mxCell>
                </UserObject>
                <UserObject label="&lt;a href=&quot;https://docs.microsoft.com/en-us/dotnet/csharp/methods&quot;&gt;Methods&lt;/a&gt;" link="https://docs.microsoft.com/en-us/dotnet/csharp/methods" linkTarget="_blank" id="266">
                    <mxCell style="rounded=1;whiteSpace=wrap;html=1;fillColor=#dae8fc;strokeColor=#6c8ebf;strokeWidth=2;fontSize=14;" vertex="1" parent="1">
                        <mxGeometry x="160" y="440" width="80" height="40" as="geometry"/>
                    </mxCell>
                </UserObject>
                <UserObject label="&lt;a href=&quot;https://docs.microsoft.com/en-us/dotnet/csharp/fundamentals/types/namespaces&quot;&gt;Namespaces&lt;/a&gt;" link="https://docs.microsoft.com/en-us/dotnet/csharp/fundamentals/types/namespaces" linkTarget="_blank" id="267">
                    <mxCell style="rounded=1;whiteSpace=wrap;html=1;fillColor=#dae8fc;strokeColor=#6c8ebf;strokeWidth=2;fontSize=14;" vertex="1" parent="1">
                        <mxGeometry x="599" y="340" width="101" height="40" as="geometry"/>
                    </mxCell>
                </UserObject>
                <UserObject label="&lt;a href=&quot;https://docs.microsoft.com/en-us/dotnet/csharp/language-reference/statements/iteration-statements&quot;&gt;Loops&lt;/a&gt;" link="https://docs.microsoft.com/en-us/dotnet/csharp/language-reference/statements/iteration-statements" linkTarget="_blank" id="268">
                    <mxCell style="rounded=1;whiteSpace=wrap;html=1;fillColor=#dae8fc;strokeColor=#6c8ebf;strokeWidth=2;fontSize=14;" vertex="1" parent="1">
                        <mxGeometry x="599" y="290" width="61" height="40" as="geometry"/>
                    </mxCell>
                </UserObject>
                <UserObject label="&lt;div style=&quot;font-size: 14px&quot;&gt;&lt;a href=&quot;https://docs.microsoft.com/en-us/dotnet/csharp/language-reference/tokens/interpolated&quot;&gt;String Interpolation&lt;br style=&quot;font-size: 14px&quot;&gt;&lt;/a&gt;&lt;/div&gt;" link="https://docs.microsoft.com/en-us/dotnet/csharp/language-reference/tokens/interpolated" linkTarget="_blank" id="269">
                    <mxCell style="rounded=1;whiteSpace=wrap;html=1;fillColor=#dae8fc;strokeColor=#6c8ebf;strokeWidth=2;fontSize=14;" vertex="1" parent="1">
                        <mxGeometry x="599" y="440" width="141" height="40" as="geometry"/>
                    </mxCell>
                </UserObject>
                <mxCell id="270" style="edgeStyle=orthogonalEdgeStyle;rounded=1;orthogonalLoop=1;jettySize=auto;html=1;exitX=1;exitY=0.5;exitDx=0;exitDy=0;entryX=0;entryY=0.5;entryDx=0;entryDy=0;fontSize=14;endArrow=none;endFill=0;strokeWidth=2;" edge="1" parent="1" source="275" target="283">
                    <mxGeometry relative="1" as="geometry"/>
                </mxCell>
                <mxCell id="271" style="edgeStyle=orthogonalEdgeStyle;rounded=1;orthogonalLoop=1;jettySize=auto;html=1;exitX=1;exitY=0.5;exitDx=0;exitDy=0;entryX=0;entryY=0.5;entryDx=0;entryDy=0;fontSize=14;endArrow=none;endFill=0;strokeWidth=2;" edge="1" parent="1" source="275" target="280">
                    <mxGeometry relative="1" as="geometry"/>
                </mxCell>
                <mxCell id="272" style="edgeStyle=orthogonalEdgeStyle;rounded=1;orthogonalLoop=1;jettySize=auto;html=1;exitX=0.5;exitY=1;exitDx=0;exitDy=0;fontSize=24;endArrow=none;endFill=0;strokeWidth=2;" edge="1" parent="1" source="275" target="294">
                    <mxGeometry relative="1" as="geometry"/>
                </mxCell>
                <mxCell id="273" style="edgeStyle=orthogonalEdgeStyle;rounded=1;orthogonalLoop=1;jettySize=auto;html=1;exitX=0;exitY=0.5;exitDx=0;exitDy=0;entryX=1;entryY=0.5;entryDx=0;entryDy=0;endArrow=none;endFill=0;strokeWidth=2;" edge="1" parent="1" source="275" target="308">
                    <mxGeometry relative="1" as="geometry"/>
                </mxCell>
                <mxCell id="274" style="edgeStyle=orthogonalEdgeStyle;rounded=1;orthogonalLoop=1;jettySize=auto;html=1;exitX=0;exitY=0.5;exitDx=0;exitDy=0;entryX=1;entryY=0.5;entryDx=0;entryDy=0;endArrow=none;endFill=0;strokeWidth=2;" edge="1" parent="1" source="275" target="276">
                    <mxGeometry relative="1" as="geometry"/>
                </mxCell>
                <mxCell id="275" value="&lt;div style=&quot;font-size: 14px&quot;&gt;&lt;font style=&quot;font-size: 14px&quot;&gt;Object-Oriented Programming&lt;/font&gt;&lt;/div&gt;" style="rounded=1;whiteSpace=wrap;html=1;fillColor=#fff2cc;strokeColor=#d6b656;strokeWidth=2;" vertex="1" parent="1">
                    <mxGeometry x="320" y="670" width="200" height="40" as="geometry"/>
                </mxCell>
                <UserObject label="Encapsulation" link="https://docs.microsoft.com/en-us/dotnet/csharp/fundamentals/object-oriented/" id="276">
                    <mxCell style="swimlane;rounded=1;fontSize=14;strokeWidth=2;" vertex="1" parent="1">
                        <mxGeometry x="10" y="540" width="231" height="150" as="geometry"/>
                    </mxCell>
                </UserObject>
                <UserObject label="&lt;a href=&quot;https://docs.microsoft.com/en-us/dotnet/csharp/fundamentals/types/classes&quot;&gt;Classes&lt;/a&gt;" link="https://docs.microsoft.com/en-us/dotnet/csharp/fundamentals/types/classes" linkTarget="_blank" id="277">
                    <mxCell style="rounded=1;whiteSpace=wrap;html=1;fillColor=#dae8fc;strokeColor=#6c8ebf;strokeWidth=2;fontSize=14;" vertex="1" parent="276">
                        <mxGeometry x="10" y="40" width="100" height="40" as="geometry"/>
                    </mxCell>
                </UserObject>
                <UserObject label="&lt;a href=&quot;https://docs.microsoft.com/en-us/dotnet/csharp/language-reference/builtin-types/struct&quot;&gt;Structs&lt;/a&gt;" link="https://docs.microsoft.com/en-us/dotnet/csharp/language-reference/builtin-types/struct" id="278">
                    <mxCell style="rounded=1;whiteSpace=wrap;html=1;fillColor=#dae8fc;strokeColor=#6c8ebf;strokeWidth=2;fontSize=14;" vertex="1" parent="276">
                        <mxGeometry x="120" y="40" width="100" height="40" as="geometry"/>
                    </mxCell>
                </UserObject>
                <UserObject label="&lt;a href=&quot;https://docs.microsoft.com/en-us/dotnet/csharp/fundamentals/types/records&quot;&gt;Records&lt;/a&gt;" link="https://docs.microsoft.com/en-us/dotnet/csharp/fundamentals/types/records" linkTarget="_blank" id="279">
                    <mxCell style="rounded=1;whiteSpace=wrap;html=1;fillColor=#dae8fc;strokeColor=#6c8ebf;strokeWidth=2;fontSize=14;" vertex="1" parent="276">
                        <mxGeometry x="10" y="90" width="100" height="40" as="geometry"/>
                    </mxCell>
                </UserObject>
                <mxCell id="280" value="Inheritance" style="swimlane;rounded=1;fontSize=14;strokeWidth=2;" vertex="1" parent="1">
                    <mxGeometry x="599" y="565" width="240" height="100" as="geometry"/>
                </mxCell>
                <UserObject label="&lt;a href=&quot;https://docs.microsoft.com/en-us/dotnet/csharp/fundamentals/types/interfaces&quot;&gt;Interfaces&lt;/a&gt;" link="https://docs.microsoft.com/en-us/dotnet/csharp/fundamentals/types/interfaces" linkTarget="_blank" id="281">
                    <mxCell style="rounded=1;whiteSpace=wrap;html=1;fillColor=#dae8fc;strokeColor=#6c8ebf;strokeWidth=2;fontSize=14;" vertex="1" parent="280">
                        <mxGeometry x="15" y="40" width="100" height="40" as="geometry"/>
                    </mxCell>
                </UserObject>
                <UserObject label="&lt;a href=&quot;https://docs.microsoft.com/en-us/dotnet/csharp/language-reference/keywords/abstract&quot;&gt;Abstract Classes&lt;/a&gt;" link="https://docs.microsoft.com/en-us/dotnet/csharp/language-reference/keywords/abstract" linkTarget="_blank" id="282">
                    <mxCell style="rounded=1;whiteSpace=wrap;html=1;fillColor=#dae8fc;strokeColor=#6c8ebf;strokeWidth=2;fontSize=14;" vertex="1" parent="280">
                        <mxGeometry x="125" y="40" width="100" height="40" as="geometry"/>
                    </mxCell>
                </UserObject>
                <mxCell id="283" value="Polymorphism" style="swimlane;rounded=1;fontSize=14;strokeWidth=2;" vertex="1" parent="1">
                    <mxGeometry x="600" y="700" width="240" height="150" as="geometry"/>
                </mxCell>
                <UserObject label="&lt;a href=&quot;https://docs.microsoft.com/en-us/dotnet/csharp/language-reference/keywords/virtual&quot;&gt;Virtual&lt;/a&gt;" link="https://docs.microsoft.com/en-us/dotnet/csharp/language-reference/keywords/virtual" linkTarget="_blank" id="284">
                    <mxCell style="rounded=1;whiteSpace=wrap;html=1;fillColor=#dae8fc;strokeColor=#6c8ebf;strokeWidth=2;fontSize=14;" vertex="1" parent="283">
                        <mxGeometry x="15" y="40" width="100" height="40" as="geometry"/>
                    </mxCell>
                </UserObject>
                <UserObject label="&lt;a href=&quot;https://docs.microsoft.com/en-us/dotnet/csharp/language-reference/keywords/override&quot;&gt;Override&lt;/a&gt;" link="https://docs.microsoft.com/en-us/dotnet/csharp/language-reference/keywords/override" linkTarget="_blank" id="285">
                    <mxCell style="rounded=1;whiteSpace=wrap;html=1;fillColor=#dae8fc;strokeColor=#6c8ebf;strokeWidth=2;fontSize=14;" vertex="1" parent="283">
                        <mxGeometry x="125" y="40" width="100" height="40" as="geometry"/>
                    </mxCell>
                </UserObject>
                <UserObject label="&lt;a href=&quot;https://docs.microsoft.com/en-us/dotnet/csharp/language-reference/keywords/base&quot;&gt;Using Base Classes&lt;/a&gt;" link="https://docs.microsoft.com/en-us/dotnet/csharp/language-reference/keywords/base" linkTarget="_blank" id="286">
                    <mxCell style="rounded=1;whiteSpace=wrap;html=1;fillColor=#dae8fc;strokeColor=#6c8ebf;strokeWidth=2;fontSize=14;" vertex="1" parent="283">
                        <mxGeometry x="15" y="90" width="100" height="40" as="geometry"/>
                    </mxCell>
                </UserObject>
                <mxCell id="287" style="edgeStyle=orthogonalEdgeStyle;rounded=1;orthogonalLoop=1;jettySize=auto;html=1;entryX=1;entryY=0.5;entryDx=0;entryDy=0;fontSize=24;endArrow=none;endFill=0;strokeWidth=2;" edge="1" parent="1" source="294" target="296">
                    <mxGeometry relative="1" as="geometry">
                        <mxPoint x="320.0000000000002" y="1054.37" as="sourcePoint"/>
                    </mxGeometry>
                </mxCell>
                <mxCell id="288" style="edgeStyle=orthogonalEdgeStyle;rounded=1;orthogonalLoop=1;jettySize=auto;html=1;entryX=1;entryY=0.5;entryDx=0;entryDy=0;fontSize=24;endArrow=none;endFill=0;strokeWidth=2;" edge="1" parent="1" source="294" target="297">
                    <mxGeometry relative="1" as="geometry">
                        <mxPoint x="320.0000000000002" y="1054.37" as="sourcePoint"/>
                    </mxGeometry>
                </mxCell>
                <mxCell id="289" style="edgeStyle=orthogonalEdgeStyle;rounded=1;orthogonalLoop=1;jettySize=auto;html=1;exitX=1;exitY=0.5;exitDx=0;exitDy=0;entryX=0;entryY=0.5;entryDx=0;entryDy=0;fontSize=24;endArrow=none;endFill=0;strokeWidth=2;" edge="1" parent="1" source="294" target="305">
                    <mxGeometry relative="1" as="geometry"/>
                </mxCell>
                <mxCell id="290" style="edgeStyle=orthogonalEdgeStyle;rounded=1;orthogonalLoop=1;jettySize=auto;html=1;exitX=1;exitY=0.5;exitDx=0;exitDy=0;entryX=0;entryY=0.5;entryDx=0;entryDy=0;fontSize=24;endArrow=none;endFill=0;strokeWidth=2;" edge="1" parent="1" source="294" target="306">
                    <mxGeometry relative="1" as="geometry"/>
                </mxCell>
                <mxCell id="291" style="edgeStyle=orthogonalEdgeStyle;rounded=1;orthogonalLoop=1;jettySize=auto;html=1;exitX=1;exitY=0.5;exitDx=0;exitDy=0;entryX=0;entryY=0.5;entryDx=0;entryDy=0;endArrow=none;endFill=0;strokeWidth=2;" edge="1" parent="1" source="294" target="307">
                    <mxGeometry relative="1" as="geometry"/>
                </mxCell>
                <mxCell id="292" style="edgeStyle=orthogonalEdgeStyle;rounded=1;orthogonalLoop=1;jettySize=auto;html=1;exitX=1;exitY=0.5;exitDx=0;exitDy=0;entryX=0;entryY=0.5;entryDx=0;entryDy=0;endArrow=none;endFill=0;strokeWidth=2;" edge="1" parent="1" source="294" target="295">
                    <mxGeometry relative="1" as="geometry"/>
                </mxCell>
                <mxCell id="293" style="edgeStyle=orthogonalEdgeStyle;rounded=1;orthogonalLoop=1;jettySize=auto;html=1;entryX=1;entryY=0.5;entryDx=0;entryDy=0;endArrow=none;endFill=0;strokeWidth=2;" edge="1" parent="1" source="294" target="300">
                    <mxGeometry relative="1" as="geometry">
                        <mxPoint x="320.0000000000002" y="1054.37" as="sourcePoint"/>
                    </mxGeometry>
                </mxCell>
                <mxCell id="294" value="&lt;font style=&quot;font-size: 14px&quot;&gt;Going Deeper&lt;/font&gt;" style="rounded=1;whiteSpace=wrap;html=1;fillColor=#fff2cc;strokeColor=#d6b656;strokeWidth=3;" vertex="1" parent="1">
                    <mxGeometry x="321" y="1087.5" width="200" height="40" as="geometry"/>
                </mxCell>
                <UserObject label="&lt;a href=&quot;https://docs.microsoft.com/en-us/dotnet/csharp/linq/&quot;&gt;Linq&lt;/a&gt;" link="https://docs.microsoft.com/en-us/dotnet/csharp/linq/" linkTarget="_blank" id="295">
                    <mxCell style="rounded=1;whiteSpace=wrap;html=1;fillColor=#dae8fc;strokeColor=#6c8ebf;strokeWidth=2;fontSize=14;" vertex="1" parent="1">
                        <mxGeometry x="599" y="940" width="48" height="40" as="geometry"/>
                    </mxCell>
                </UserObject>
                <UserObject label="&lt;a href=&quot;https://docs.microsoft.com/en-us/dotnet/csharp/programming-guide/classes-and-structs/object-and-collection-initializers&quot;&gt;Object and Collection Initializers&lt;/a&gt;" link="https://docs.microsoft.com/en-us/dotnet/csharp/programming-guide/classes-and-structs/object-and-collection-initializers" linkTarget="_blank" id="296">
                    <mxCell style="rounded=1;whiteSpace=wrap;html=1;fillColor=#dae8fc;strokeColor=#6c8ebf;strokeWidth=2;fontSize=14;" vertex="1" parent="1">
                        <mxGeometry x="80" y="956.87" width="160" height="40" as="geometry"/>
                    </mxCell>
                </UserObject>
                <mxCell id="297" value="Lambdas" style="swimlane;rounded=1;fontSize=14;strokeWidth=2;" vertex="1" parent="1">
                    <mxGeometry x="10" y="1006.87" width="230" height="95" as="geometry"/>
                </mxCell>
                <UserObject label="&lt;a href=&quot;https://docs.microsoft.com/en-us/dotnet/csharp/language-reference/operators/lambda-expressions&quot;&gt;Arrow Functions&lt;/a&gt;" link="https://docs.microsoft.com/en-us/dotnet/csharp/language-reference/operators/lambda-expressions" linkTarget="_blank" id="298">
                    <mxCell style="rounded=1;whiteSpace=wrap;html=1;fillColor=#dae8fc;strokeColor=#6c8ebf;strokeWidth=2;fontSize=14;" vertex="1" parent="297">
                        <mxGeometry x="120" y="40" width="100" height="40" as="geometry"/>
                    </mxCell>
                </UserObject>
                <UserObject label="&lt;a href=&quot;https://docs.microsoft.com/en-us/dotnet/csharp/language-reference/operators/lambda-operator&quot;&gt;&quot;=&amp;gt;&quot; Operator&lt;/a&gt;" link="https://docs.microsoft.com/en-us/dotnet/csharp/language-reference/operators/lambda-operator" linkTarget="_blank" id="299">
                    <mxCell style="rounded=1;whiteSpace=wrap;html=1;fillColor=#dae8fc;strokeColor=#6c8ebf;strokeWidth=2;fontSize=14;" vertex="1" parent="297">
                        <mxGeometry x="10" y="40" width="100" height="40" as="geometry"/>
                    </mxCell>
                </UserObject>
                <UserObject label="Asynchronous &#10;Programming" link="https://docs.microsoft.com/en-us/dotnet/csharp/programming-guide/concepts/async/" id="300">
                    <mxCell style="swimlane;rounded=1;fontSize=14;strokeWidth=2;startSize=40;" vertex="1" parent="1">
                        <mxGeometry x="10" y="1116.87" width="230" height="173.13" as="geometry"/>
                    </mxCell>
                </UserObject>
                <UserObject label="&lt;a href=&quot;https://docs.microsoft.com/en-us/dotnet/csharp/programming-guide/concepts/async/&quot;&gt;Tasks&lt;/a&gt;" link="https://docs.microsoft.com/en-us/dotnet/csharp/programming-guide/concepts/async/" linkTarget="_blank" id="301">
                    <mxCell style="rounded=1;whiteSpace=wrap;html=1;fillColor=#dae8fc;strokeColor=#6c8ebf;strokeWidth=2;fontSize=14;" vertex="1" parent="300">
                        <mxGeometry x="120" y="60" width="100" height="40" as="geometry"/>
                    </mxCell>
                </UserObject>
                <UserObject label="&lt;a href=&quot;https://docs.microsoft.com/en-us/dotnet/csharp/language-reference/keywords/async&quot;&gt;Async&lt;/a&gt;&lt;a href=&quot;https://docs.microsoft.com/en-us/dotnet/csharp/language-reference/operators/await&quot;&gt;&lt;/a&gt;" link="https://docs.microsoft.com/en-us/dotnet/csharp/language-reference/keywords/async" linkTarget="_blank" id="302">
                    <mxCell style="rounded=1;whiteSpace=wrap;html=1;fillColor=#dae8fc;strokeColor=#6c8ebf;strokeWidth=2;fontSize=14;" vertex="1" parent="300">
                        <mxGeometry x="10" y="115" width="100" height="40" as="geometry"/>
                    </mxCell>
                </UserObject>
                <UserObject label="&lt;a href=&quot;https://docs.microsoft.com/en-us/dotnet/csharp/language-reference/operators/await&quot;&gt;Await&lt;/a&gt;" link="https://docs.microsoft.com/en-us/dotnet/csharp/language-reference/operators/await" linkTarget="_blank" id="303">
                    <mxCell style="rounded=1;whiteSpace=wrap;html=1;fillColor=#dae8fc;strokeColor=#6c8ebf;strokeWidth=2;fontSize=14;" vertex="1" parent="300">
                        <mxGeometry x="120" y="115" width="100" height="40" as="geometry"/>
                    </mxCell>
                </UserObject>
                <UserObject label="&lt;a href=&quot;https://docs.microsoft.com/en-us/dotnet/standard/threading/using-threads-and-threading&quot;&gt;Threads&lt;/a&gt;" link="https://docs.microsoft.com/en-us/dotnet/standard/threading/using-threads-and-threading" linkTarget="_blank" id="304">
                    <mxCell style="rounded=1;whiteSpace=wrap;html=1;fillColor=#dae8fc;strokeColor=#6c8ebf;strokeWidth=2;fontSize=14;" vertex="1" parent="300">
                        <mxGeometry x="10" y="60" width="100" height="40" as="geometry"/>
                    </mxCell>
                </UserObject>
                <UserObject label="&lt;a href=&quot;https://docs.microsoft.com/en-us/dotnet/csharp/programming-guide/concepts/serialization/&quot;&gt;Serialization&lt;/a&gt;" link="https://docs.microsoft.com/en-us/dotnet/csharp/programming-guide/concepts/serialization/" linkTarget="_blank" id="305">
                    <mxCell style="rounded=1;whiteSpace=wrap;html=1;fillColor=#dae8fc;strokeColor=#6c8ebf;strokeWidth=2;fontSize=14;" vertex="1" parent="1">
                        <mxGeometry x="599" y="1201.2499999999998" width="100" height="40" as="geometry"/>
                    </mxCell>
                </UserObject>
                <UserObject label="&lt;div&gt;&lt;a href=&quot;https://docs.microsoft.com/en-us/dotnet/csharp/programming-guide/classes-and-structs/extension-methods&quot;&gt;Extension Methods&lt;/a&gt;&lt;/div&gt;" link="https://docs.microsoft.com/en-us/dotnet/csharp/programming-guide/classes-and-structs/extension-methods" linkTarget="_blank" id="306">
                    <mxCell style="rounded=1;whiteSpace=wrap;html=1;fillColor=#dae8fc;strokeColor=#6c8ebf;strokeWidth=2;fontSize=14;" vertex="1" parent="1">
                        <mxGeometry x="600" y="1249.9999999999998" width="139" height="40" as="geometry"/>
                    </mxCell>
                </UserObject>
                <UserObject label="&lt;a href=&quot;https://docs.microsoft.com/en-us/dotnet/csharp/fundamentals/types/generics&quot;&gt;Generics&lt;/a&gt;" link="https://docs.microsoft.com/en-us/dotnet/csharp/fundamentals/types/generics" linkTarget="_blank" id="307">
                    <mxCell style="rounded=1;whiteSpace=wrap;html=1;fillColor=#dae8fc;strokeColor=#6c8ebf;strokeWidth=2;fontSize=14;" vertex="1" parent="1">
                        <mxGeometry x="600" y="990.31" width="80" height="40" as="geometry"/>
                    </mxCell>
                </UserObject>
                <UserObject label="Access Modifiers" link="https://docs.microsoft.com/en-us/dotnet/csharp/programming-guide/classes-and-structs/access-modifiers" id="308">
                    <mxCell style="swimlane;rounded=1;fontSize=14;strokeWidth=2;" vertex="1" parent="1">
                        <mxGeometry x="10" y="700" width="230" height="150" as="geometry"/>
                    </mxCell>
                </UserObject>
                <UserObject label="&lt;a href=&quot;https://docs.microsoft.com/en-us/dotnet/csharp/language-reference/keywords/public&quot;&gt;Public&lt;/a&gt;" link="https://docs.microsoft.com/en-us/dotnet/csharp/language-reference/keywords/public" linkTarget="_blank" id="309">
                    <mxCell style="rounded=1;whiteSpace=wrap;html=1;fillColor=#dae8fc;strokeColor=#6c8ebf;strokeWidth=2;fontSize=14;" vertex="1" parent="308">
                        <mxGeometry x="10" y="40" width="100" height="40" as="geometry"/>
                    </mxCell>
                </UserObject>
                <UserObject label="&lt;a href=&quot;https://docs.microsoft.com/en-us/dotnet/csharp/language-reference/keywords/private&quot;&gt;Private&lt;/a&gt;" link="https://docs.microsoft.com/en-us/dotnet/csharp/language-reference/keywords/private" linkTarget="_blank" id="310">
                    <mxCell style="rounded=1;whiteSpace=wrap;html=1;fillColor=#dae8fc;strokeColor=#6c8ebf;strokeWidth=2;fontSize=14;" vertex="1" parent="308">
                        <mxGeometry x="120" y="40" width="100" height="40" as="geometry"/>
                    </mxCell>
                </UserObject>
                <UserObject label="&lt;a href=&quot;https://docs.microsoft.com/en-us/dotnet/csharp/language-reference/keywords/internal&quot;&gt;Internal&lt;/a&gt;" link="https://docs.microsoft.com/en-us/dotnet/csharp/language-reference/keywords/internal" linkTarget="_blank" id="311">
                    <mxCell style="rounded=1;whiteSpace=wrap;html=1;fillColor=#dae8fc;strokeColor=#6c8ebf;strokeWidth=2;fontSize=14;" vertex="1" parent="308">
                        <mxGeometry x="10" y="90" width="100" height="40" as="geometry"/>
                    </mxCell>
                </UserObject>
                <UserObject label="&lt;a href=&quot;https://docs.microsoft.com/en-us/dotnet/csharp/language-reference/keywords/protected&quot;&gt;Protected&lt;/a&gt;" link="https://docs.microsoft.com/en-us/dotnet/csharp/language-reference/keywords/protected" linkTarget="_blank" id="312">
                    <mxCell style="rounded=1;whiteSpace=wrap;html=1;fillColor=#dae8fc;strokeColor=#6c8ebf;strokeWidth=2;fontSize=14;" vertex="1" parent="308">
                        <mxGeometry x="120" y="90" width="100" height="40" as="geometry"/>
                    </mxCell>
                </UserObject>
                <UserObject label="Collections" link="https://docs.microsoft.com/en-us/dotnet/csharp/programming-guide/concepts/collections" id="313">
                    <mxCell style="swimlane;rounded=1;fontSize=14;strokeWidth=2;" vertex="1" parent="1">
                        <mxGeometry x="600" y="130" width="240" height="150" as="geometry"/>
                    </mxCell>
                </UserObject>
                <UserObject label="&lt;a href=&quot;https://docs.microsoft.com/en-us/dotnet/csharp/programming-guide/arrays/&quot;&gt;Array&lt;/a&gt;" link="https://docs.microsoft.com/en-us/dotnet/csharp/programming-guide/arrays/" linkTarget="_blank" id="314">
                    <mxCell style="rounded=1;whiteSpace=wrap;html=1;fillColor=#dae8fc;strokeColor=#6c8ebf;strokeWidth=2;fontSize=14;" vertex="1" parent="313">
                        <mxGeometry x="15" y="90" width="100" height="40" as="geometry"/>
                    </mxCell>
                </UserObject>
                <UserObject label="&lt;a href=&quot;https://docs.microsoft.com/en-us/dotnet/api/system.collections.generic.list-1&quot;&gt;List&lt;/a&gt;" link="https://docs.microsoft.com/en-us/dotnet/api/system.collections.generic.list-1" linkTarget="_blank" id="315">
                    <mxCell style="rounded=1;whiteSpace=wrap;html=1;fillColor=#dae8fc;strokeColor=#6c8ebf;strokeWidth=2;fontSize=14;" vertex="1" parent="313">
                        <mxGeometry x="15" y="40" width="100" height="40" as="geometry"/>
                    </mxCell>
                </UserObject>
                <UserObject label="&lt;a href=&quot;https://docs.microsoft.com/en-us/dotnet/api/system.collections.generic.dictionary-2&quot;&gt;Dictionary&lt;/a&gt;" link="https://docs.microsoft.com/en-us/dotnet/api/system.collections.generic.dictionary-2" linkTarget="_blank" id="316">
                    <mxCell style="rounded=1;whiteSpace=wrap;html=1;fillColor=#dae8fc;strokeColor=#6c8ebf;strokeWidth=2;fontSize=14;" vertex="1" parent="313">
                        <mxGeometry x="125" y="40" width="100" height="40" as="geometry"/>
                    </mxCell>
                </UserObject>
                <UserObject label="Variables and Data Types" link="https://docs.microsoft.com/en-us/dotnet/csharp/language-reference/builtin-types/built-in-types" id="317">
                    <mxCell style="swimlane;rounded=1;fontSize=14;strokeWidth=2;" vertex="1" parent="1">
                        <mxGeometry x="11" y="180" width="230" height="200" as="geometry"/>
                    </mxCell>
                </UserObject>
                <UserObject label="&lt;a href=&quot;https://docs.microsoft.com/en-us/dotnet/csharp/language-reference/builtin-types/integral-numeric-types&quot;&gt;Int&lt;/a&gt;" link="https://docs.microsoft.com/en-us/dotnet/csharp/language-reference/builtin-types/integral-numeric-types" linkTarget="_blank" id="318">
                    <mxCell style="rounded=1;whiteSpace=wrap;html=1;fillColor=#dae8fc;strokeColor=#6c8ebf;strokeWidth=2;fontSize=14;" vertex="1" parent="317">
                        <mxGeometry x="120" y="40" width="100" height="40" as="geometry"/>
                    </mxCell>
                </UserObject>
                <UserObject label="&lt;a href=&quot;https://docs.microsoft.com/en-us/dotnet/csharp/language-reference/builtin-types/reference-types&quot;&gt;String&lt;/a&gt;" link="https://docs.microsoft.com/en-us/dotnet/csharp/language-reference/builtin-types/reference-types" linkTarget="_blank" id="319">
                    <mxCell style="rounded=1;whiteSpace=wrap;html=1;fillColor=#dae8fc;strokeColor=#6c8ebf;strokeWidth=2;fontSize=14;" vertex="1" parent="317">
                        <mxGeometry x="10" y="40" width="100" height="40" as="geometry"/>
                    </mxCell>
                </UserObject>
                <UserObject label="&lt;div&gt;&lt;a href=&quot;https://docs.microsoft.com/en-us/dotnet/csharp/language-reference/builtin-types/floating-point-numeric-types&quot;&gt;Float/Double&lt;/a&gt;&lt;/div&gt;&lt;div&gt;&lt;a href=&quot;https://docs.microsoft.com/en-us/dotnet/csharp/language-reference/builtin-types/floating-point-numeric-types&quot;&gt;/Decimal&lt;/a&gt;&lt;/div&gt;" link="https://docs.microsoft.com/en-us/dotnet/csharp/language-reference/builtin-types/floating-point-numeric-types" linkTarget="_blank" id="320">
                    <mxCell style="rounded=1;whiteSpace=wrap;html=1;fillColor=#dae8fc;strokeColor=#6c8ebf;strokeWidth=2;fontSize=14;" vertex="1" parent="317">
                        <mxGeometry x="120" y="90" width="100" height="40" as="geometry"/>
                    </mxCell>
                </UserObject>
                <UserObject label="&lt;a href=&quot;https://docs.microsoft.com/en-us/dotnet/csharp/language-reference/builtin-types/bool&quot;&gt;Boolean&lt;/a&gt;" linkTarget="_blank" link="https://docs.microsoft.com/en-us/dotnet/csharp/language-reference/builtin-types/bool" id="321">
                    <mxCell style="rounded=1;whiteSpace=wrap;html=1;fillColor=#dae8fc;strokeColor=#6c8ebf;strokeWidth=2;fontSize=14;" vertex="1" parent="317">
                        <mxGeometry x="10" y="90" width="100" height="40" as="geometry"/>
                    </mxCell>
                </UserObject>
                <UserObject label="&lt;a href=&quot;https://docs.microsoft.com/en-us/dotnet/csharp/fundamentals/types/anonymous-types&quot;&gt;Var&lt;/a&gt;" link="https://docs.microsoft.com/en-us/dotnet/csharp/fundamentals/types/anonymous-types" linkTarget="_blank" id="322">
                    <mxCell style="rounded=1;whiteSpace=wrap;html=1;fillColor=#dae8fc;strokeColor=#6c8ebf;strokeWidth=2;fontSize=14;" vertex="1" parent="317">
                        <mxGeometry x="10" y="140" width="100" height="40" as="geometry"/>
                    </mxCell>
                </UserObject>
                <UserObject label="&lt;a href=&quot;https://docs.microsoft.com/en-us/dotnet/csharp/language-reference/keywords/using-directive&quot;&gt;`Using` directives&lt;/a&gt;" link="https://docs.microsoft.com/en-us/dotnet/csharp/language-reference/keywords/using-directive" linkTarget="_blank" id="323">
                    <mxCell style="rounded=1;whiteSpace=wrap;html=1;fillColor=#dae8fc;strokeColor=#6c8ebf;strokeWidth=2;fontSize=14;" vertex="1" parent="1">
                        <mxGeometry x="599" y="390" width="131" height="40" as="geometry"/>
                    </mxCell>
                </UserObject>
                <mxCell id="324" style="edgeStyle=orthogonalEdgeStyle;rounded=1;orthogonalLoop=1;jettySize=auto;html=1;entryX=0;entryY=0.5;entryDx=0;entryDy=0;endArrow=none;endFill=0;strokeWidth=2;" edge="1" parent="1" source="294" target="331">
                    <mxGeometry relative="1" as="geometry">
                        <mxPoint x="531" y="1117.5" as="sourcePoint"/>
                        <mxPoint x="601" y="1136.87" as="targetPoint"/>
                    </mxGeometry>
                </mxCell>
                <mxCell id="325" value="Immutability" style="swimlane;rounded=1;fontSize=14;strokeWidth=2;startSize=23;" vertex="1" parent="1">
                    <mxGeometry x="599" y="1043.75" width="230" height="95" as="geometry"/>
                </mxCell>
                <UserObject label="&lt;a href=&quot;https://docs.microsoft.com/en-us/dotnet/csharp/language-reference/keywords/const&quot;&gt;Const&lt;/a&gt;" link="https://docs.microsoft.com/en-us/dotnet/csharp/language-reference/keywords/const" linkTarget="_blank" id="326">
                    <mxCell style="rounded=1;whiteSpace=wrap;html=1;fillColor=#dae8fc;strokeColor=#6c8ebf;strokeWidth=2;fontSize=14;" vertex="1" parent="325">
                        <mxGeometry x="120" y="40" width="100" height="40" as="geometry"/>
                    </mxCell>
                </UserObject>
                <UserObject label="&lt;a href=&quot;https://docs.microsoft.com/en-us/dotnet/csharp/language-reference/keywords/readonly&quot;&gt;Readonly&lt;/a&gt;" link="https://docs.microsoft.com/en-us/dotnet/csharp/language-reference/keywords/readonly" linkTarget="_blank" id="327">
                    <mxCell style="rounded=1;whiteSpace=wrap;html=1;fillColor=#dae8fc;strokeColor=#6c8ebf;strokeWidth=2;fontSize=14;" vertex="1" parent="325">
                        <mxGeometry x="10" y="40" width="100" height="40" as="geometry"/>
                    </mxCell>
                </UserObject>
                <mxCell id="328" style="edgeStyle=orthogonalEdgeStyle;rounded=1;orthogonalLoop=1;jettySize=auto;html=1;entryX=0;entryY=0.5;entryDx=0;entryDy=0;endArrow=none;endFill=0;strokeWidth=2;" edge="1" parent="1" source="294" target="325">
                    <mxGeometry relative="1" as="geometry">
                        <mxPoint x="531" y="1117.5142857142857" as="sourcePoint"/>
                        <mxPoint x="611" y="1268.1200000000001" as="targetPoint"/>
                    </mxGeometry>
                </mxCell>
                <mxCell id="329" style="edgeStyle=orthogonalEdgeStyle;rounded=1;orthogonalLoop=1;jettySize=auto;html=1;endArrow=none;endFill=0;strokeWidth=2;entryX=1;entryY=0.5;entryDx=0;entryDy=0;" edge="1" parent="1" source="294" target="330">
                    <mxGeometry relative="1" as="geometry">
                        <mxPoint x="331" y="1117.5294117647059" as="sourcePoint"/>
                        <mxPoint x="240" y="1340" as="targetPoint"/>
                    </mxGeometry>
                </mxCell>
                <UserObject label="&lt;div style=&quot;font-size: 14px&quot;&gt;&lt;a href=&quot;https://docs.microsoft.com/en-us/dotnet/csharp/fundamentals/exceptions/exception-handling&quot;&gt;Exception Handling&lt;/a&gt;&lt;br style=&quot;font-size: 14px&quot;&gt;&lt;/div&gt;" link="https://docs.microsoft.com/en-us/dotnet/csharp/fundamentals/exceptions/exception-handling" linkTarget="_blank" id="330">
                    <mxCell style="rounded=1;whiteSpace=wrap;html=1;fillColor=#dae8fc;strokeColor=#6c8ebf;strokeWidth=2;fontSize=14;" vertex="1" parent="1">
                        <mxGeometry x="99" y="1301.87" width="141" height="40" as="geometry"/>
                    </mxCell>
                </UserObject>
                <UserObject label="&lt;a href=&quot;https://docs.microsoft.com/en-us/dotnet/csharp/language-reference/keywords/static&quot;&gt;Static&lt;/a&gt;" link="https://docs.microsoft.com/en-us/dotnet/csharp/language-reference/keywords/static" linkTarget="_blank" id="331">
                    <mxCell style="rounded=1;whiteSpace=wrap;html=1;fillColor=#dae8fc;strokeColor=#6c8ebf;strokeWidth=2;fontSize=14;" vertex="1" parent="1">
                        <mxGeometry x="600" y="1150" width="60" height="40" as="geometry"/>
                    </mxCell>
                </UserObject>
                <UserObject label="&lt;a href=&quot;https://docs.microsoft.com/en-us/dotnet/csharp/language-reference/builtin-types/enum&quot;&gt;Enums&lt;/a&gt;" link="https://docs.microsoft.com/en-us/dotnet/csharp/language-reference/builtin-types/enum" linkTarget="_blank" id="332">
                    <mxCell style="rounded=1;whiteSpace=wrap;html=1;fillColor=#dae8fc;strokeColor=#6c8ebf;strokeWidth=2;fontSize=14;" vertex="1" parent="1">
                        <mxGeometry x="171" y="909.9999999999999" width="69" height="40" as="geometry"/>
                    </mxCell>
                </UserObject>
                <mxCell id="333" style="edgeStyle=orthogonalEdgeStyle;rounded=1;orthogonalLoop=1;jettySize=auto;html=1;fontSize=24;endArrow=none;endFill=0;strokeWidth=2;entryX=1;entryY=0.5;entryDx=0;entryDy=0;" edge="1" parent="1" source="294" target="332">
                    <mxGeometry relative="1" as="geometry">
                        <mxPoint x="331" y="1117.5" as="sourcePoint"/>
                        <mxPoint x="250" y="986.8699999999999" as="targetPoint"/>
                    </mxGeometry>
                </mxCell>
            </root>
        </mxGraphModel>
    </diagram>
</mxfile>